<svg width="204" height="106" viewBox="0 0 204 106" fill="none" xmlns="http://www.w3.org/2000/svg">
<path d="M26.3896 58.1553L21.8027 58.751L21.5049 50.709L16.5605 50.8877L16.2627 82.2217L20.4326 82.1025L20.1348 87.4639L7.86328 87.7617L7.68457 82.2217H11.1992L11.1396 51.1855L5.77832 51.543L6.07617 59.0488H1.13184L1.42969 46.1221L25.7939 45.2285L26.3896 58.1553ZM37.7974 50.5303C37.7974 51.0465 37.6981 51.533 37.4995 51.9897C37.3009 52.4465 37.0329 52.8436 36.6953 53.1812C36.3577 53.5187 35.9606 53.7868 35.5039 53.9854C35.0472 54.1839 34.5607 54.2832 34.0444 54.2832C33.5282 54.2832 33.0417 54.1839 32.585 53.9854C32.1283 53.7868 31.7311 53.5187 31.3936 53.1812C31.056 52.8436 30.7879 52.4465 30.5894 51.9897C30.3908 51.533 30.2915 51.0465 30.2915 50.5303C30.2915 50.014 30.3908 49.5275 30.5894 49.0708C30.7879 48.6141 31.056 48.217 31.3936 47.8794C31.7311 47.5418 32.1283 47.2738 32.585 47.0752C33.0417 46.8766 33.5282 46.7773 34.0444 46.7773C34.5607 46.7773 35.0472 46.8766 35.5039 47.0752C35.9606 47.2738 36.3577 47.5418 36.6953 47.8794C37.0329 48.217 37.3009 48.6141 37.4995 49.0708C37.6981 49.5275 37.7974 50.014 37.7974 50.5303ZM40.2993 83.8301L40.1206 88.7744L29.2192 88.2979V83.1152L31.7212 82.9365V62.8613H28.0874L28.2065 57.6787H37.7974L37.0825 83.5322L40.2993 83.8301ZM61.5063 57.5596L61.2085 69.7715L56.3833 69.6523C56.3634 69.0964 56.284 68.4014 56.145 67.5674C56.0259 66.7135 55.8174 65.8895 55.5195 65.0952C55.2217 64.2811 54.8146 63.5861 54.2983 63.0103C53.7821 62.4344 53.1268 62.1465 52.3325 62.1465C51.6971 62.1465 51.151 62.355 50.6943 62.772C50.2575 63.189 49.8901 63.7251 49.5923 64.3804C49.2944 65.0356 49.0562 65.7703 48.8774 66.5845C48.6987 67.3986 48.5597 68.2028 48.4604 68.9971C48.381 69.7913 48.3314 70.536 48.3115 71.231C48.2917 71.9061 48.2817 72.4521 48.2817 72.8691C48.2817 73.3258 48.2817 73.9017 48.2817 74.5967C48.3016 75.2718 48.3413 75.9966 48.4009 76.771C48.4803 77.5256 48.5895 78.29 48.7285 79.0645C48.8874 79.819 49.1157 80.5041 49.4136 81.1196C49.7313 81.7352 50.1185 82.2316 50.5752 82.6089C51.0518 82.9862 51.6375 83.1748 52.3325 83.1748C53.1466 83.1748 53.8218 82.8968 54.3579 82.3408C54.894 81.7848 55.321 81.1196 55.6387 80.3452C55.9762 79.5509 56.2046 78.7269 56.3237 77.873C56.4627 77.0192 56.5422 76.2845 56.562 75.6689H61.3276C61.3078 77.0192 61.1291 78.429 60.7915 79.8984C60.4539 81.3678 59.9178 82.728 59.1831 83.979C58.4683 85.2101 57.5449 86.2327 56.4131 87.0469C55.2812 87.8411 53.9211 88.2383 52.3325 88.2383C50.9425 88.2383 49.7313 88.0099 48.6987 87.5532C47.686 87.0965 46.8123 86.481 46.0776 85.7065C45.3628 84.9123 44.777 83.9989 44.3203 82.9663C43.8636 81.9139 43.5062 80.8218 43.248 79.6899C42.9899 78.5382 42.8112 77.3667 42.7119 76.1753C42.6126 74.9839 42.563 73.8421 42.563 72.75C42.563 71.7969 42.6226 70.7544 42.7417 69.6226C42.8608 68.4709 43.0594 67.3192 43.3374 66.1675C43.6353 65.0158 44.0225 63.8939 44.499 62.8018C44.9756 61.7096 45.5614 60.7466 46.2563 59.9126C46.9712 59.0786 47.7952 58.4134 48.7285 57.917C49.6816 57.4007 50.7837 57.1426 52.0347 57.1426C53.0275 57.1426 53.9707 57.4007 54.8643 57.917C55.7578 58.4333 56.5223 59.0687 57.1577 59.8232L57.7534 57.2617L61.5063 57.5596Z" fill="#953F3A"/>
<path d="M89.415 58.1553L84.8281 58.751L84.5303 50.709L79.5859 50.8877L79.2881 82.2217L83.458 82.1025L83.1602 87.4639L70.8887 87.7617L70.71 82.2217H74.2246L74.165 51.1855L68.8037 51.543L69.1016 59.0488H64.1572L64.4551 46.1221L88.8193 45.2285L89.415 58.1553ZM112.469 82.9365L112.35 87.7021L106.214 88.2979L105.916 84.8428C105.499 85.2995 105.013 85.7363 104.457 86.1533C103.92 86.5505 103.335 86.9178 102.699 87.2554C102.084 87.5731 101.438 87.8213 100.763 88C100.108 88.1986 99.4626 88.2979 98.8271 88.2979C97.596 88.2979 96.5535 88.0596 95.6997 87.583C94.8657 87.0866 94.1906 86.4412 93.6743 85.647C93.1779 84.8328 92.8205 83.9095 92.6021 82.877C92.3836 81.8444 92.2744 80.792 92.2744 79.7197C92.2744 78.3695 92.4928 77.1383 92.9297 76.0264C93.3864 74.9144 94.0119 73.9712 94.8062 73.1968C95.6203 72.4025 96.5933 71.7969 97.7251 71.3799C98.8569 70.943 100.098 70.7246 101.448 70.7246C101.984 70.7246 102.511 70.7643 103.027 70.8438C103.563 70.9033 104.089 71.0225 104.605 71.2012C104.645 70.8636 104.665 70.5459 104.665 70.248C104.665 69.9502 104.665 69.6325 104.665 69.2949C104.665 69.1162 104.655 68.8283 104.635 68.4312C104.615 68.0142 104.576 67.5575 104.516 67.061C104.476 66.5448 104.407 66.0186 104.308 65.4824C104.208 64.9264 104.069 64.43 103.891 63.9932C103.732 63.5365 103.533 63.1691 103.295 62.8911C103.076 62.5933 102.799 62.4443 102.461 62.4443C102.084 62.4443 101.716 62.5734 101.359 62.8315C101.001 63.0897 100.664 63.4272 100.346 63.8442C100.028 64.2414 99.7306 64.6981 99.4526 65.2144C99.1945 65.7108 98.9562 66.2072 98.7378 66.7036C98.5194 67.2 98.3307 67.6667 98.1719 68.1035C98.013 68.5205 97.8939 68.8581 97.8145 69.1162L92.751 68.8779L92.5723 57.7979L97.5166 57.6787V62.0273C97.7152 61.5111 97.9832 60.9749 98.3208 60.4189C98.6584 59.863 99.0456 59.3665 99.4824 58.9297C99.9391 58.473 100.436 58.1056 100.972 57.8276C101.528 57.5298 102.123 57.3809 102.759 57.3809C104.268 57.3809 105.479 57.6092 106.393 58.0659C107.326 58.5226 108.031 59.168 108.507 60.002C109.004 60.8161 109.331 61.8089 109.49 62.9805C109.649 64.1322 109.729 65.403 109.729 66.793C109.729 69.4935 109.709 72.1841 109.669 74.8647C109.629 77.5454 109.49 80.236 109.252 82.9365H112.469ZM104.784 80.9111V76.5625C104.506 76.1654 104.089 75.9072 103.533 75.7881C102.997 75.6689 102.501 75.6094 102.044 75.6094C100.614 75.6094 99.4526 75.9668 98.5591 76.6816C97.6655 77.3766 97.2188 78.4886 97.2188 80.0176C97.2188 80.9508 97.467 81.7451 97.9634 82.4004C98.4598 83.0358 99.2044 83.3535 100.197 83.3535C100.515 83.3535 100.932 83.3138 101.448 83.2344C101.984 83.1351 102.491 82.9862 102.967 82.7876C103.464 82.589 103.891 82.3408 104.248 82.043C104.605 81.7253 104.784 81.348 104.784 80.9111ZM133.706 57.5596L133.408 69.7715L128.583 69.6523C128.563 69.0964 128.483 68.4014 128.344 67.5674C128.225 66.7135 128.017 65.8895 127.719 65.0952C127.421 64.2811 127.014 63.5861 126.498 63.0103C125.981 62.4344 125.326 62.1465 124.532 62.1465C123.896 62.1465 123.35 62.355 122.894 62.772C122.457 63.189 122.089 63.7251 121.792 64.3804C121.494 65.0356 121.255 65.7703 121.077 66.5845C120.898 67.3986 120.759 68.2028 120.66 68.9971C120.58 69.7913 120.531 70.536 120.511 71.231C120.491 71.9061 120.481 72.4521 120.481 72.8691C120.481 73.3258 120.481 73.9017 120.481 74.5967C120.501 75.2718 120.541 75.9966 120.6 76.771C120.68 77.5256 120.789 78.29 120.928 79.0645C121.087 79.819 121.315 80.5041 121.613 81.1196C121.931 81.7352 122.318 82.2316 122.774 82.6089C123.251 82.9862 123.837 83.1748 124.532 83.1748C125.346 83.1748 126.021 82.8968 126.557 82.3408C127.093 81.7848 127.52 81.1196 127.838 80.3452C128.175 79.5509 128.404 78.7269 128.523 77.873C128.662 77.0192 128.741 76.2845 128.761 75.6689H133.527C133.507 77.0192 133.328 78.429 132.991 79.8984C132.653 81.3678 132.117 82.728 131.382 83.979C130.667 85.2101 129.744 86.2327 128.612 87.0469C127.48 87.8411 126.12 88.2383 124.532 88.2383C123.142 88.2383 121.931 88.0099 120.898 87.5532C119.885 87.0965 119.012 86.481 118.277 85.7065C117.562 84.9123 116.976 83.9989 116.52 82.9663C116.063 81.9139 115.705 80.8218 115.447 79.6899C115.189 78.5382 115.01 77.3667 114.911 76.1753C114.812 74.9839 114.762 73.8421 114.762 72.75C114.762 71.7969 114.822 70.7544 114.941 69.6226C115.06 68.4709 115.259 67.3192 115.537 66.1675C115.834 65.0158 116.222 63.8939 116.698 62.8018C117.175 61.7096 117.761 60.7466 118.456 59.9126C119.17 59.0786 119.994 58.4134 120.928 57.917C121.881 57.4007 122.983 57.1426 124.234 57.1426C125.227 57.1426 126.17 57.4007 127.063 57.917C127.957 58.4333 128.722 59.0687 129.357 59.8232L129.953 57.2617L133.706 57.5596Z" fill="#62953A"/>
<path d="M161.614 58.1553L157.027 58.751L156.729 50.709L151.785 50.8877L151.487 82.2217L155.657 82.1025L155.359 87.4639L143.088 87.7617L142.909 82.2217H146.424L146.364 51.1855L141.003 51.543L141.301 59.0488H136.356L136.654 46.1221L161.019 45.2285L161.614 58.1553ZM180.915 71.7969C180.915 72.7897 180.855 73.8918 180.736 75.103C180.617 76.3143 180.409 77.5454 180.111 78.7964C179.813 80.0275 179.416 81.2388 178.919 82.4302C178.443 83.6017 177.837 84.6442 177.103 85.5576C176.368 86.471 175.504 87.2057 174.511 87.7617C173.538 88.3177 172.396 88.5957 171.086 88.5957C169.855 88.5957 168.773 88.3674 167.839 87.9106C166.906 87.4341 166.102 86.8185 165.427 86.064C164.752 85.2896 164.186 84.396 163.729 83.3833C163.272 82.3706 162.905 81.3182 162.627 80.2261C162.369 79.134 162.18 78.0319 162.061 76.9199C161.962 75.8079 161.912 74.7754 161.912 73.8223C161.912 72.8294 161.972 71.7174 162.091 70.4863C162.21 69.2552 162.409 68.0142 162.687 66.7632C162.984 65.4924 163.372 64.2612 163.848 63.0698C164.345 61.8784 164.95 60.826 165.665 59.9126C166.4 58.9793 167.264 58.2347 168.256 57.6787C169.249 57.1227 170.411 56.8447 171.741 56.8447C172.952 56.8447 174.015 57.083 174.928 57.5596C175.861 58.0361 176.666 58.6715 177.341 59.4658C178.036 60.2601 178.602 61.1735 179.039 62.2061C179.495 63.2386 179.863 64.3109 180.141 65.4229C180.419 66.515 180.617 67.617 180.736 68.729C180.855 69.841 180.915 70.8636 180.915 71.7969ZM176.209 71.6182C176.209 71.2012 176.189 70.665 176.149 70.0098C176.11 69.3545 176.03 68.6595 175.911 67.9248C175.812 67.1901 175.663 66.4554 175.464 65.7207C175.266 64.986 175.008 64.3208 174.69 63.7251C174.372 63.1294 173.975 62.6528 173.499 62.2954C173.042 61.9181 172.496 61.7295 171.86 61.7295C171.086 61.7295 170.421 61.9678 169.865 62.4443C169.329 62.901 168.862 63.4967 168.465 64.2314C168.088 64.9661 167.78 65.7902 167.542 66.7036C167.303 67.5972 167.115 68.5007 166.976 69.4141C166.856 70.3076 166.777 71.1515 166.737 71.9458C166.698 72.7401 166.678 73.3854 166.678 73.8818C166.678 74.2988 166.698 74.835 166.737 75.4902C166.777 76.1257 166.856 76.8107 166.976 77.5454C167.095 78.2801 167.254 79.0148 167.452 79.7495C167.671 80.4644 167.939 81.1196 168.256 81.7153C168.574 82.311 168.961 82.7975 169.418 83.1748C169.875 83.5322 170.411 83.7109 171.026 83.7109C171.781 83.7109 172.426 83.4826 172.962 83.0259C173.518 82.5692 173.985 81.9834 174.362 81.2686C174.759 80.5339 175.077 79.7197 175.315 78.8262C175.554 77.9326 175.732 77.0391 175.852 76.1455C175.991 75.2321 176.08 74.3783 176.12 73.584C176.179 72.7897 176.209 72.1344 176.209 71.6182ZM202.271 69.9502C202.271 71.5785 202.211 73.167 202.092 74.7158L189.285 74.9541C189.285 75.3711 189.305 75.8774 189.344 76.4731C189.384 77.049 189.444 77.6646 189.523 78.3198C189.622 78.9552 189.751 79.5907 189.91 80.2261C190.089 80.8416 190.317 81.4076 190.595 81.9238C190.873 82.4202 191.211 82.8273 191.608 83.145C192.025 83.4429 192.521 83.5918 193.097 83.5918C193.713 83.5918 194.239 83.4329 194.676 83.1152C195.132 82.7777 195.5 82.3706 195.778 81.894C196.076 81.3976 196.304 80.8615 196.463 80.2856C196.622 79.7098 196.731 79.1637 196.791 78.6475H201.973C201.794 79.7793 201.497 80.9211 201.08 82.0728C200.663 83.2244 200.107 84.2669 199.412 85.2002C198.717 86.1335 197.873 86.8979 196.88 87.4937C195.887 88.0695 194.725 88.3574 193.395 88.3574C192.005 88.3574 190.804 88.0993 189.791 87.583C188.798 87.0469 187.954 86.342 187.259 85.4683C186.564 84.5946 185.998 83.5918 185.562 82.46C185.125 81.3083 184.787 80.1268 184.549 78.9155C184.33 77.6844 184.181 76.4533 184.102 75.2222C184.023 73.991 183.983 72.8493 183.983 71.7969C183.983 70.8438 184.033 69.8112 184.132 68.6992C184.251 67.5872 184.44 66.4852 184.698 65.3931C184.956 64.3009 185.303 63.2485 185.74 62.2358C186.197 61.2231 186.763 60.3395 187.438 59.585C188.113 58.8105 188.917 58.195 189.851 57.7383C190.784 57.2617 191.866 57.0234 193.097 57.0234C195.202 57.0234 196.86 57.361 198.071 58.0361C199.283 58.6914 200.196 59.6048 200.812 60.7764C201.447 61.9281 201.844 63.2982 202.003 64.8867C202.182 66.4554 202.271 68.1432 202.271 69.9502ZM197.088 68.2227C197.088 67.627 197.049 66.9518 196.969 66.1973C196.91 65.4427 196.751 64.7279 196.493 64.0527C196.254 63.3776 195.897 62.8117 195.42 62.355C194.944 61.8983 194.308 61.6699 193.514 61.6699C192.819 61.6699 192.233 61.8288 191.757 62.1465C191.28 62.4443 190.883 62.8415 190.565 63.3379C190.248 63.8343 190 64.4102 189.821 65.0654C189.642 65.7008 189.513 66.3561 189.434 67.0312C189.354 67.6865 189.295 68.3319 189.255 68.9673C189.235 69.6027 189.225 70.1686 189.225 70.665H196.91C197.029 69.8311 197.088 69.0169 197.088 68.2227Z" fill="#3A6995"/>
<rect x="106" y="4.07864" width="5.76808" height="40.901" rx="2.88404" transform="rotate(-45 106 4.07864)" fill="#3A6995"/>
<rect width="5.76808" height="40.901" rx="2.88404" transform="matrix(0.707107 0.707107 0.707107 -0.707107 106 28.9214)" fill="#3A6995"/>
<circle cx="81.5" cy="16.5" r="14.5" stroke="#953F3A" stroke-width="4"/>
</svg>
