<svg width="35" height="35" viewBox="0 0 35 35" fill="none" xmlns="http://www.w3.org/2000/svg">
<path d="M17.9375 17.8208C18.7156 17.1473 19.3398 16.3142 19.7675 15.3782C20.1953 14.4421 20.4167 13.425 20.4167 12.3958C20.4167 10.462 19.6484 8.6073 18.281 7.23985C16.9135 5.8724 15.0589 5.10417 13.125 5.10417C11.1911 5.10417 9.33648 5.8724 7.96902 7.23985C6.60157 8.6073 5.83334 10.462 5.83334 12.3958C5.83333 13.425 6.05472 14.4421 6.48248 15.3782C6.91025 16.3142 7.53438 17.1473 8.31251 17.8208C6.27105 18.7453 4.53902 20.2381 3.32352 22.1208C2.10802 24.0035 1.46049 26.1965 1.45834 28.4375C1.45834 28.8243 1.61199 29.1952 1.88548 29.4687C2.15897 29.7422 2.5299 29.8958 2.91668 29.8958C3.30345 29.8958 3.67438 29.7422 3.94787 29.4687C4.22136 29.1952 4.37501 28.8243 4.37501 28.4375C4.37501 26.1169 5.29688 23.8913 6.93783 22.2503C8.57877 20.6094 10.8044 19.6875 13.125 19.6875C15.4457 19.6875 17.6713 20.6094 19.3122 22.2503C20.9531 23.8913 21.875 26.1169 21.875 28.4375C21.875 28.8243 22.0287 29.1952 22.3021 29.4687C22.5756 29.7422 22.9466 29.8958 23.3333 29.8958C23.7201 29.8958 24.0911 29.7422 24.3645 29.4687C24.638 29.1952 24.7917 28.8243 24.7917 28.4375C24.7895 26.1965 24.142 24.0035 22.9265 22.1208C21.711 20.2381 19.979 18.7453 17.9375 17.8208V17.8208ZM13.125 16.7708C12.2597 16.7708 11.4139 16.5142 10.6944 16.0335C9.97492 15.5528 9.41417 14.8695 9.08304 14.0701C8.7519 13.2707 8.66526 12.391 8.83407 11.5423C9.00288 10.6937 9.41956 9.9141 10.0314 9.30225C10.6433 8.69039 11.4228 8.27371 12.2715 8.1049C13.1202 7.93609 13.9998 8.02273 14.7992 8.35387C15.5987 8.685 16.282 9.24575 16.7627 9.96522C17.2434 10.6847 17.5 11.5305 17.5 12.3958C17.5 13.5562 17.0391 14.669 16.2186 15.4894C15.3981 16.3099 14.2853 16.7708 13.125 16.7708ZM27.3292 17.2375C28.2625 16.1865 28.8721 14.8882 29.0847 13.4988C29.2973 12.1095 29.1039 10.6882 28.5276 9.40625C27.9513 8.12427 27.0168 7.03617 25.8365 6.27291C24.6563 5.50966 23.2806 5.1038 21.875 5.10417C21.4882 5.10417 21.1173 5.25782 20.8438 5.53131C20.5703 5.8048 20.4167 6.17573 20.4167 6.56251C20.4167 6.94928 20.5703 7.32021 20.8438 7.5937C21.1173 7.86719 21.4882 8.02084 21.875 8.02084C23.0353 8.02084 24.1481 8.48177 24.9686 9.30225C25.7891 10.1227 26.25 11.2355 26.25 12.3958C26.2479 13.1618 26.0448 13.9138 25.6609 14.5767C25.277 15.2395 24.7259 15.7899 24.0625 16.1729C23.8463 16.2976 23.6657 16.4758 23.538 16.6903C23.4104 16.9047 23.3399 17.1484 23.3333 17.3979C23.3272 17.6455 23.3843 17.8905 23.4991 18.11C23.6139 18.3294 23.7827 18.516 23.9896 18.6521L24.5583 19.0313L24.7479 19.1333C26.5058 19.9671 27.9888 21.2858 29.0223 22.9342C30.0557 24.5826 30.5966 26.492 30.5813 28.4375C30.5813 28.8243 30.7349 29.1952 31.0084 29.4687C31.2819 29.7422 31.6528 29.8958 32.0396 29.8958C32.4264 29.8958 32.7973 29.7422 33.0708 29.4687C33.3443 29.1952 33.4979 28.8243 33.4979 28.4375C33.5098 26.1996 32.9493 23.9958 31.8696 22.0355C30.79 20.0752 29.227 18.4236 27.3292 17.2375V17.2375Z" fill="#E1DFDF"/>
</svg>
